<!DOCTYPE svg PUBLIC "-//W3C//DTD SVG 20010904//EN" "http://www.w3.org/TR/2001/REC-SVG-20010904/DTD/svg10.dtd">
<svg version="1.0" xmlns="http://www.w3.org/2000/svg" width="540px" height="540px" viewBox="0 0 5400 5400" preserveAspectRatio="xMidYMid meet">
<g id="layer101" fill="#000000" stroke="none">
 <path d="M0 2700 l0 -2700 2700 0 2700 0 0 2700 0 2700 -2700 0 -2700 0 0 -2700z"/>
 </g>
<g id="layer102" fill="#ffffff" stroke="none">
 <path d="M0 2700 l0 -2700 2700 0 2700 0 0 2700 0 2700 -2700 0 -2700 0 0 -2700z m1030 2100 l0 -420 1670 0 1670 0 0 420 0 420 420 0 420 0 0 -420 0 -420 -420 0 -420 0 0 -1680 0 -1680 420 0 420 0 0 -420 0 -420 -420 0 -420 0 0 420 0 420 -1670 0 -1670 0 0 -420 0 -420 -420 0 -420 0 0 420 0 420 420 0 420 0 0 1680 0 1680 -420 0 -420 0 0 420 0 420 420 0 420 0 0 -420z"/>
 <path d="M1450 3745 l0 -215 210 0 210 0 0 215 0 215 -210 0 -210 0 0 -215z"/>
 <path d="M2700 3750 l0 -210 -210 0 -210 0 0 -210 0 -210 -210 0 -210 0 0 -205 0 -205 -205 0 -205 0 0 -425 0 -425 210 0 210 0 0 210 0 210 210 0 210 0 0 210 0 210 205 0 205 0 0 -210 0 -210 210 0 210 0 0 -205 0 -205 -210 0 -210 0 0 -210 0 -210 630 0 630 0 -2 628 -3 627 -622 3 -623 2 0 410 0 410 205 0 205 0 0 -205 0 -205 210 0 210 0 0 420 0 420 -420 0 -420 0 0 -210z"/>
 </g>

</svg>